<svg width="37" height="37" viewBox="0 0 37 37" fill="none" xmlns="http://www.w3.org/2000/svg">
<path d="M16.5674 30.65L28.8674 18.35C29.6174 17.6 30.5174 17.15 31.5674 17.15C32.6174 17.15 33.5174 17.6 34.2674 18.35L34.5674 18.65V6.5C34.5674 4.85 33.2174 3.5 31.5674 3.5H4.56738C2.91738 3.5 1.56738 4.85 1.56738 6.5V30.5C1.56738 32.15 2.91738 33.5 4.56738 33.5H16.5674V30.65ZM4.56738 6.5H31.5674V11H4.56738V6.5ZM31.5674 20.15C31.4174 20.15 31.1174 20.3 30.9674 20.45L29.4674 21.95L32.6174 25.1L34.1174 23.6C34.4174 23.3 34.4174 22.7 34.1174 22.4L32.1674 20.45C32.0174 20.3 31.8674 20.15 31.5674 20.15ZM28.7174 22.85L19.5674 31.85V35H22.7174L31.8674 25.85L28.7174 22.85Z" fill="#28282B"/>
</svg>
