<svg width="36" height="37" viewBox="0 0 36 37" fill="none" xmlns="http://www.w3.org/2000/svg">
<g id="mdi:book-multiple">
<path id="Vector" d="M28.5 27.5H13.5C12.7044 27.5 11.9413 27.1839 11.3787 26.6213C10.8161 26.0587 10.5 25.2956 10.5 24.5V6.5C10.5 5.70435 10.8161 4.94129 11.3787 4.37868C11.9413 3.81607 12.7044 3.5 13.5 3.5H15V11L18 8.75L21 11V3.5H28.5C29.2956 3.5 30.0587 3.81607 30.6213 4.37868C31.1839 4.94129 31.5 5.70435 31.5 6.5V24.5C31.5 25.2956 31.1839 26.0587 30.6213 26.6213C30.0587 27.1839 29.2956 27.5 28.5 27.5ZM25.5 30.5V33.5H7.5C6.70435 33.5 5.94129 33.1839 5.37868 32.6213C4.81607 32.0587 4.5 31.2956 4.5 30.5V9.5H7.5V30.5H25.5Z" fill="#28282B"/>
</g>
</svg>
