<svg width="36" height="37" viewBox="0 0 36 37" fill="none" xmlns="http://www.w3.org/2000/svg">
<g id="mdi:application-cog">
<path id="Vector" d="M32.55 28.4V26.9L34.2 25.7C34.35 25.55 34.5 25.4 34.35 25.25L32.85 22.7C32.85 22.55 32.55 22.55 32.4 22.55L30.6 23.3C30.15 23 29.7 22.7 29.25 22.55L28.95 20.6C28.95 20.45 28.8 20.3 28.65 20.3H25.65C25.35 20.3 25.2 20.45 25.2 20.6L24.9 22.55C24.45 22.85 24.15 23 23.7 23.3L21.9 22.55C21.75 22.55 21.6 22.55 21.45 22.7L19.95 25.25C19.95 25.4 19.95 25.55 20.1 25.7L21.75 26.9V28.4L20.1 29.6C19.95 29.75 19.8 29.9 19.95 30.05L21.45 32.6C21.6 32.75 21.75 32.75 21.9 32.75L23.7 32C24 32.3 24.45 32.6 24.9 32.75L25.2 34.7C25.35 34.85 25.5 35 25.65 35H28.65C28.8 35 28.95 34.85 28.95 34.7L29.25 32.75C29.7 32.45 30 32.3 30.45 32L32.25 32.6C32.4 32.6 32.55 32.6 32.7 32.45L34.2 29.9C34.35 29.75 34.35 29.6 34.2 29.6L32.55 28.4ZM27 29.75C25.8 29.75 24.75 28.7 24.75 27.5C24.75 26.3 25.8 25.25 27 25.25C28.2 25.25 29.25 26.3 29.25 27.5C29.25 28.7 28.2 29.75 27 29.75ZM16.5 27.5C16.5 21.65 21.15 17 27 17C30 17 32.55 18.2 34.5 20.15V6.5C34.5 4.85 33.15 3.5 31.5 3.5H4.5C2.85 3.5 1.5 4.85 1.5 6.5V30.5C1.5 32.15 2.85 33.5 4.5 33.5H18.45C17.25 31.85 16.5 29.75 16.5 27.5ZM4.5 6.5H31.5V11H4.5V6.5Z" fill="#28282B"/>
</g>
</svg>
