<svg width="37" height="37" viewBox="0 0 37 37" fill="none" xmlns="http://www.w3.org/2000/svg">
<g clip-path="url(#clip0_2540_8407)">
<path d="M30.1348 0.5H6.13477V3.5H30.1348V0.5ZM6.13477 36.5H30.1348V33.5H6.13477V36.5ZM30.1348 6.5H6.13477C5.33912 6.5 4.57605 6.81607 4.01345 7.37868C3.45084 7.94129 3.13477 8.70435 3.13477 9.5V27.5C3.13477 28.2956 3.45084 29.0587 4.01345 29.6213C4.57605 30.1839 5.33912 30.5 6.13477 30.5H30.1348C30.9304 30.5 31.6935 30.1839 32.2561 29.6213C32.8187 29.0587 33.1348 28.2956 33.1348 27.5V9.5C33.1348 8.70435 32.8187 7.94129 32.2561 7.37868C31.6935 6.81607 30.9304 6.5 30.1348 6.5ZM18.1348 10.625C19.0299 10.625 19.8883 10.9806 20.5213 11.6135C21.1542 12.2465 21.5098 13.1049 21.5098 14C21.5098 14.8951 21.1542 15.7535 20.5213 16.3865C19.8883 17.0194 19.0299 17.375 18.1348 17.375C17.2397 17.375 16.3812 17.0194 15.7483 16.3865C15.1153 15.7535 14.7598 14.8951 14.7598 14C14.7598 13.1049 15.1153 12.2465 15.7483 11.6135C16.3812 10.9806 17.2397 10.625 18.1348 10.625ZM25.6348 26H10.6348V23.75C10.6348 21.245 15.6298 20 18.1348 20C20.6398 20 25.6348 21.245 25.6348 23.75V26Z" fill="#28282B"/>
</g>
<defs>
<clipPath id="clip0_2540_8407">
<rect width="36" height="36" fill="white" transform="translate(0.134766 0.5)"/>
</clipPath>
</defs>
</svg>
