<svg width="33" height="32" viewBox="0 0 33 32" fill="none" xmlns="http://www.w3.org/2000/svg">
<path d="M29.401 16.0008C29.401 19.6932 27.9001 23.035 25.4752 25.4495C23.0639 27.8503 19.7391 29.3341 16.0677 29.3341C8.70391 29.3341 2.73438 23.3646 2.73438 16.0008C2.73438 12.4418 4.12877 9.20855 6.40104 6.81748C8.83031 4.26118 12.2629 2.66748 16.0677 2.66748C19.7391 2.66748 23.0639 4.15137 25.4752 6.55211C27.9001 8.96661 29.401 12.3084 29.401 16.0008Z" stroke="#28282B" stroke-width="3" stroke-linecap="round" stroke-linejoin="round"/>
<path d="M29.4016 16.0005C27.456 16.0005 22.089 15.2667 17.2859 17.376C12.0682 19.6673 8.28983 23.2215 6.64355 25.432" stroke="#28282B" stroke-width="3" stroke-linecap="round" stroke-linejoin="round"/>
<path d="M11.0674 3.63623C13.1543 5.56216 17.7076 10.466 19.4007 15.3337C21.0939 20.2014 21.7213 26.1864 22.1078 27.8902" stroke="#28282B" stroke-width="3" stroke-linecap="round" stroke-linejoin="round"/>
<path d="M2.83691 14.3338C5.35543 14.4856 12.0226 14.6226 16.2893 12.8004C20.556 10.9782 24.2275 7.62689 25.4868 6.56396" stroke="#28282B" stroke-width="3" stroke-linecap="round" stroke-linejoin="round"/>
<path d="M3.73438 21.0757C4.90882 23.9266 7.04291 26.2808 9.73438 27.7363" stroke="#28282B" stroke-width="3" stroke-linecap="round" stroke-linejoin="round"/>
<path d="M2.73438 16.0007C2.73438 12.4418 4.12877 9.20845 6.40104 6.81738" stroke="#28282B" stroke-width="3" stroke-linecap="round" stroke-linejoin="round"/>
<path d="M16.068 2.66748C12.2632 2.66748 8.83063 4.26118 6.40137 6.81748" stroke="#28282B" stroke-width="3" stroke-linecap="round" stroke-linejoin="round"/>
<path d="M21.4014 3.77686C22.9302 4.44486 24.3096 5.39128 25.4755 6.55204C27.9004 8.96648 29.4014 12.3083 29.4014 16.0007C29.4014 17.6425 29.1046 19.2149 28.5619 20.6674" stroke="#28282B" stroke-width="3" stroke-linecap="round" stroke-linejoin="round"/>
<path d="M16.0674 29.3343C19.7388 29.3343 23.0636 27.8504 25.4748 25.4497" stroke="#28282B" stroke-width="3" stroke-linecap="round" stroke-linejoin="round"/>
</svg>
