<svg width="33" height="32" viewBox="0 0 33 32" fill="none" xmlns="http://www.w3.org/2000/svg">
<path fill-rule="evenodd" clip-rule="evenodd" d="M12.7071 11.9585H17.6591V14.4252C18.3724 13.0065 20.2018 11.7318 22.9498 11.7318C28.2178 11.7318 29.4684 14.5558 29.4684 19.7372V29.3332H24.1351V20.9172C24.1351 17.9665 23.4218 16.3025 21.6058 16.3025C19.0871 16.3025 18.0404 18.0958 18.0404 20.9158V29.3332H12.7071V11.9585ZM3.56176 29.1065H8.89509V11.7318H3.56176V29.1065ZM9.65909 6.0665C9.65929 6.51354 9.57063 6.95615 9.39827 7.36862C9.22592 7.78109 8.97329 8.15519 8.65509 8.46917C8.01029 9.11 7.1375 9.46871 6.22842 9.4665C5.32094 9.4659 4.45017 9.1081 3.80442 8.4705C3.48737 8.15545 3.23561 7.78094 3.06355 7.36841C2.89149 6.95589 2.80253 6.51347 2.80176 6.0665C2.80176 5.16384 3.16176 4.29984 3.80576 3.6625C4.45094 3.02405 5.32208 2.6661 6.22976 2.6665C7.13909 2.6665 8.01109 3.02517 8.65509 3.6625C9.29776 4.29984 9.65909 5.16384 9.65909 6.0665Z" fill="#28282B"/>
</svg>
