<svg width="32" height="32" viewBox="0 0 32 32" fill="none" xmlns="http://www.w3.org/2000/svg">
<path d="M5.3348 4H26.6681C27.0218 4 27.3609 4.14048 27.6109 4.39052C27.861 4.64057 28.0015 4.97971 28.0015 5.33333V26.6667C28.0015 27.0203 27.861 27.3594 27.6109 27.6095C27.3609 27.8595 27.0218 28 26.6681 28H5.3348C4.98118 28 4.64204 27.8595 4.39199 27.6095C4.14194 27.3594 4.00146 27.0203 4.00146 26.6667V5.33333C4.00146 4.97971 4.14194 4.64057 4.39199 4.39052C4.64204 4.14048 4.98118 4 5.3348 4ZM6.66813 6.66667V25.3333H25.3348V6.66667H6.66813ZM23.0681 21.2533L24.3415 22.5253V22.592H17.7801V22.5253L19.1188 21.2533C19.2521 21.12 19.3188 20.9867 19.3188 20.7853V12.8853C19.3188 12.5493 19.3188 12.0813 19.3868 11.68L14.9681 22.7267H14.9015L10.3468 12.5493C10.2801 12.2827 10.2135 12.2827 10.1468 12.1493V18.8427C10.0788 19.312 10.1468 19.7133 10.3468 20.116L12.1548 22.5253V22.592H7.33347V22.5253L9.14147 20.048C9.34146 19.648 9.40813 19.1787 9.34146 18.776V11.4133C9.34146 11.0787 9.2748 10.676 9.00813 10.4093L7.80146 8.73333V8.66667H12.4895L16.3721 17.304L19.7881 8.66667H24.3415V8.73333L23.0695 10.2067C22.9361 10.34 22.8695 10.5413 22.8695 10.6747V20.852C22.8695 20.9853 22.9348 21.1867 23.0681 21.2533Z" fill="#28282B"/>
</svg>
