<svg width="36" height="37" viewBox="0 0 36 37" fill="none" xmlns="http://www.w3.org/2000/svg">
<path d="M18 18.5C16.35 18.5 14.9375 17.9125 13.7625 16.7375C12.5875 15.5625 12 14.15 12 12.5C12 10.85 12.5875 9.4375 13.7625 8.2625C14.9375 7.0875 16.35 6.5 18 6.5C19.65 6.5 21.0625 7.0875 22.2375 8.2625C23.4125 9.4375 24 10.85 24 12.5C24 14.15 23.4125 15.5625 22.2375 16.7375C21.0625 17.9125 19.65 18.5 18 18.5ZM6 30.5V26.3C6 25.45 6.219 24.6685 6.657 23.9555C7.095 23.2425 7.676 22.699 8.4 22.325C9.95 21.55 11.525 20.9685 13.125 20.5805C14.725 20.1925 16.35 19.999 18 20C19.65 20 21.275 20.194 22.875 20.582C24.475 20.97 26.05 21.551 27.6 22.325C28.325 22.7 28.9065 23.244 29.3445 23.957C29.7825 24.67 30.001 25.451 30 26.3V30.5H6Z" fill="#28282B"/>
</svg>
